<?xml version="1.0" encoding="UTF-8"?>
<svg version="1.1" xmlns="http://www.w3.org/2000/svg" width="76" height="67">
<path d="M0 0 C25.08 0 50.16 0 76 0 C76 22.11 76 44.22 76 67 C50.92 67 25.84 67 0 67 C0 44.89 0 22.78 0 0 Z " fill="#2D313C" transform="translate(0,0)"/>
<path d="M0 0 C6.52830533 3.83537938 11.61440282 8.76746597 13.875 16.1015625 C15.76747194 24.9725247 14.36535356 31.39756132 10.1875 39.2890625 C6.35642113 43.94848275 2.29327758 47.49699311 -3.625 48.9765625 C-4.45 49.0178125 -5.275 49.0590625 -6.125 49.1015625 C-3.90310176 46.87966426 -2.04017292 46.17557358 0.875 45.1015625 C-1.04095968 45.02022459 -2.95791932 44.96221883 -4.875 44.9140625 C-5.94234375 44.87925781 -7.0096875 44.84445313 -8.109375 44.80859375 C-11.42527855 45.13073464 -12.71516673 45.87305164 -15.125 48.1015625 C-12.485 48.4315625 -9.845 48.7615625 -7.125 49.1015625 C-7.125 49.4315625 -7.125 49.7615625 -7.125 50.1015625 C-15.30251187 50.80115952 -21.31480699 49.8567499 -28.125 45.1015625 C-33.16835965 40.52636282 -36.70595469 35.2070456 -37.62890625 28.3671875 C-37.92334077 19.6099255 -37.24026136 12.90204342 -31.125 6.1015625 C-22.50023123 -1.93477176 -11.18632079 -4.98723469 0 0 Z " fill="#414E66" transform="translate(49.125,10.8984375)"/>
<path d="M0 0 C9.9 0 19.8 0 30 0 C30 22.11 30 44.22 30 67 C22.74 67 15.48 67 8 67 C9.65 65.68 11.3 64.36 13 63 C20.61966578 56.34665358 25.39016022 48.54275521 26.22265625 38.24609375 C26.54011785 27.43859654 24.36473822 19.05952485 17 11 C12.07503473 5.78533089 6.7389319 3.30506725 0 1 C0 0.67 0 0.34 0 0 Z " fill="#212530" transform="translate(46,0)"/>
<path d="M0 0 C9.57 0 19.14 0 29 0 C26.70806972 1.52795352 24.78272683 2.58015694 22.3125 3.6875 C12.72742319 8.52400665 8.02247352 15.13171721 4 25 C1.41526891 33.19281429 2.65677012 42.23264637 6 50 C9.33994077 56.25479816 13.46930547 60.65241796 19 65 C19.66 65.66 20.32 66.32 21 67 C14.07 67 7.14 67 0 67 C0 44.89 0 22.78 0 0 Z " fill="#212530" transform="translate(0,0)"/>
<path d="M0 0 C3.465 1.98 3.465 1.98 7 4 C7 4.66 7 5.32 7 6 C9.475 6.99 9.475 6.99 12 8 C11.49396008 10.16874252 11.00016187 11.99967627 10 14 C9.01 14 8.02 14 7 14 C9.25740623 16.33524782 11.2805761 18.18705073 14 20 C12.25 24.875 12.25 24.875 10 26 C10 26.99 10 27.98 10 29 C11.32 29 12.64 29 14 29 C14.66 29.66 15.32 30.32 16 31 C12.51436649 33.39014869 10.25471906 34.47274656 6 34 C5 33 5 33 4.90234375 31.15234375 C4.95117188 28.07617188 4.95117188 28.07617188 5 25 C4.01 27.475 4.01 27.475 3 30 C0 29 0 29 -1.16796875 27.1015625 C-4.0808933 20.02572279 -5.81641704 12.95599994 -3.09375 5.52734375 C-2 3.3125 -2 3.3125 0 0 Z " fill="#323948" transform="translate(17,21)"/>
<path d="M0 0 C0.66 0.33 1.32 0.66 2 1 C1.2884375 1.6496875 1.2884375 1.6496875 0.5625 2.3125 C-1.23686957 4.02309613 -1.23686957 4.02309613 -2 7 C1.08809695 8.76462683 2.23312136 9 6 9 C6 9.99 6 10.98 6 12 C6.99 12.66 7.98 13.32 9 14 C9 14.99 9 15.98 9 17 C9.763125 17.144375 10.52625 17.28875 11.3125 17.4375 C14 18 14 18 17 19 C18.32 17.68 19.64 16.36 21 15 C19.125 19.75 19.125 19.75 18 22 C18.61875 22.309375 19.2375 22.61875 19.875 22.9375 C21.25 23.625 22.625 24.3125 24 25 C23.67 25.66 23.34 26.32 23 27 C19.7 27 16.4 27 13 27 C13 27.66 13 28.32 13 29 C11.66666667 30.33333333 10.33333333 31.66666667 9 33 C9 33.66 9 34.32 9 35 C6.5 36.625 6.5 36.625 4 38 C4.495 35.03 4.495 35.03 5 32 C5.99 31.67 6.98 31.34 8 31 C8.73323796 28.98491642 8.73323796 28.98491642 9 27 C8.21625 26.773125 7.4325 26.54625 6.625 26.3125 C4 25 4 25 2.6875 22.375 C2.460625 21.59125 2.23375 20.8075 2 20 C3.32 20.33 4.64 20.66 6 21 C6.33 19.02 6.66 17.04 7 15 C5.68 14.34 4.36 13.68 3 13 C3 12.34 3 11.68 3 11 C0.66785852 9.79371992 -1.49642139 8.8345262 -4 8 C-8.15899672 15.79811885 -7.99744291 23.29133479 -5.5 31.6875 C-5.01534507 33.13024594 -4.52112032 34.57002103 -4 36 C-7.58087444 32.7446596 -8.84905287 30.31498173 -9.40625 25.4609375 C-9.74279778 16.50131206 -8.98468198 10.14958359 -3 3 C-2.01821877 1.98210727 -1.02430511 0.97508925 0 0 Z " fill="#495976" transform="translate(21,14)"/>
<path d="M0 0 C0.90105469 0.00902344 1.80210938 0.01804687 2.73046875 0.02734375 C3.41753906 0.03894531 4.10460938 0.05054688 4.8125 0.0625 C4.8125 0.7225 4.8125 1.3825 4.8125 2.0625 C5.43125 1.876875 6.05 1.69125 6.6875 1.5 C8.8125 1.0625 8.8125 1.0625 10.8125 2.0625 C10.4825 3.3825 10.1525 4.7025 9.8125 6.0625 C10.4725 5.4025 11.1325 4.7425 11.8125 4.0625 C14.375 4.3125 14.375 4.3125 16.8125 5.0625 C17.1425 5.7225 17.4725 6.3825 17.8125 7.0625 C16.52284824 8.43812854 15.18560707 9.77016393 13.8125 11.0625 C13.1525 11.0625 12.4925 11.0625 11.8125 11.0625 C11.8125 11.3925 11.8125 11.7225 11.8125 12.0625 C9.1725 12.7225 6.5325 13.3825 3.8125 14.0625 C3.8125 13.4025 3.8125 12.7425 3.8125 12.0625 C2.8225 12.0625 1.8325 12.0625 0.8125 12.0625 C-0.20946992 11.08496356 -1.20729625 10.0819119 -2.1875 9.0625 C-3.50397119 8.36312468 -4.83772151 7.69520867 -6.1875 7.0625 C-7.1775 6.4025 -8.1675 5.7425 -9.1875 5.0625 C-8.875 3.125 -8.875 3.125 -8.1875 1.0625 C-5.17259443 0.05753148 -3.14568308 -0.04085303 0 0 Z " fill="#343C4D" transform="translate(28.1875,15.9375)"/>
<path d="M0 0 C4.84821341 6.11296474 4.82241983 12.41448939 4 20 C2.66435288 23.41383932 1.07452707 25.94007257 -1 29 C-3.97 28.67 -6.94 28.34 -10 28 C-9.34 27.01 -8.68 26.02 -8 25 C-6.68 25 -5.36 25 -4 25 C-5.64508566 23.19040578 -6.86654689 22.05887637 -9.125 21.0625 C-11 20 -11 20 -11.875 18.0625 C-12 16 -12 16 -10 13 C-8.0625 13.8125 -8.0625 13.8125 -6 15 C-5.67 15.99 -5.34 16.98 -5 18 C-4.34 18 -3.68 18 -3 18 C-2.67 16.02 -2.34 14.04 -2 12 C-1.34 12.33 -0.68 12.66 0 13 C-0.185625 12.34 -0.37125 11.68 -0.5625 11 C-1.13027308 7.10669886 -0.59281707 3.88624521 0 0 Z " fill="#353C4D" transform="translate(58,22)"/>
<path d="M0 0 C0.33 0.99 0.66 1.98 1 3 C0.67 3.66 0.34 4.32 0 5 C-0.0689472 6.37342831 -0.08467708 7.75002102 -0.0625 9.125 C-0.041875 10.40375 -0.02125 11.6825 0 13 C4.74407847 12.36122548 4.74407847 12.36122548 9.4375 11.4375 C12.99051224 10.83088815 16.39691404 10.93893075 20 11 C20 11.33 20 11.66 20 12 C23.70930344 12.28779078 27.29914113 12.43854108 31 12 C33.59994103 9.834795 33.59994103 9.834795 35 7 C35.98230498 5.9826127 36.97469597 4.97403883 38 4 C36.77377763 10.28438967 32.95773809 13.37056155 28 17 C24.42539159 19.0708986 24.42539159 19.0708986 21.75 18.625 C20.88375 18.315625 20.88375 18.315625 20 18 C22.31 17.01 24.62 16.02 27 15 C25.08404032 14.91866209 23.16708068 14.86065633 21.25 14.8125 C20.18265625 14.77769531 19.1153125 14.74289063 18.015625 14.70703125 C14.69972145 15.02917214 13.40983327 15.77148914 11 18 C13.64 18.33 16.28 18.66 19 19 C19 19.33 19 19.66 19 20 C10.74761285 20.7060027 4.96845816 19.56375832 -2 15 C-4.625 12.6875 -4.625 12.6875 -6 11 C-5.67 10.34 -5.34 9.68 -5 9 C-4.34 9.33 -3.68 9.66 -3 10 C-2.86722656 9.36191406 -2.73445313 8.72382812 -2.59765625 8.06640625 C-2.42105469 7.24011719 -2.24445312 6.41382813 -2.0625 5.5625 C-1.88847656 4.73878906 -1.71445312 3.91507813 -1.53515625 3.06640625 C-1 1 -1 1 0 0 Z " fill="#414E66" transform="translate(23,41)"/>
<path d="M0 0 C-1.875 4.75 -1.875 4.75 -3 7 C-2.01 7.33 -1.02 7.66 0 8 C-0.99 8.495 -0.99 8.495 -2 9 C-2.99 8.67 -3.98 8.34 -5 8 C-5.99 9.32 -6.98 10.64 -8 12 C-7.34 12.33 -6.68 12.66 -6 13 C-10.31392226 12.5206753 -12.16569547 11.2542015 -15 8 C-13.625 5.5 -13.625 5.5 -12 3 C-11.34 3 -10.68 3 -10 3 C-10 2.34 -10 1.68 -10 1 C-6.56484998 0.37542727 -3.50935186 0 0 0 Z " fill="#394255" transform="translate(44,40)"/>
<path d="M0 0 C3.465 1.98 3.465 1.98 7 4 C7 4.66 7 5.32 7 6 C9.475 6.99 9.475 6.99 12 8 C11.49396008 10.16874252 11.00016187 11.99967627 10 14 C6.40018534 12.55224845 4.84896717 10.79045708 2.75 7.5625 C2.22921875 6.78003906 1.7084375 5.99757813 1.171875 5.19140625 C0 3 0 3 0 0 Z " fill="#2D323E" transform="translate(17,21)"/>
<path d="M0 0 C0.99 0.66 1.98 1.32 3 2 C-4.40918359 5.28201479 -9.99142015 6.59824153 -18 5 C-13.19894721 -0.26241522 -6.72181245 -0.44812083 0 0 Z " fill="#2E3340" transform="translate(42,10)"/>
<path d="M0 0 C3.875 1.75 3.875 1.75 5 4 C4.01 5.485 4.01 5.485 3 7 C3 7.99 3 8.98 3 10 C3.78375 10.0825 4.5675 10.165 5.375 10.25 C8 11 8 11 9.25 12.9375 C9.4975 13.618125 9.745 14.29875 10 15 C10.33 15.66 10.66 16.32 11 17 C10.236875 16.95875 9.47375 16.9175 8.6875 16.875 C5.77281584 16.77919176 5.77281584 16.77919176 3 19 C3.33 17.02 3.66 15.04 4 13 C3.01 12.34 2.02 11.68 1 11 C-0.28317892 7.15046324 -0.06643637 4.05261865 0 0 Z " fill="#394256" transform="translate(44,31)"/>
<path d="M0 0 C0.33 0 0.66 0 1 0 C1.50111669 1.97105899 2.0000736 3.94271089 2.484375 5.91796875 C2.8639831 7.45078023 3.26878665 8.977406 3.6875 10.5 C4.14142089 14.13136711 3.55132115 17.38578356 3 21 C-0.67707478 16.52356113 -1.14042569 13.09793149 -1.125 7.375 C-1.12757812 6.41335937 -1.13015625 5.45171875 -1.1328125 4.4609375 C-1 2 -1 2 0 0 Z " fill="#2C313C" transform="translate(14,27)"/>
<path d="M0 0 C3.52954433 4.45029503 4.12313116 7.54880215 4.0625 13.1875 C4.05347656 14.27417969 4.04445313 15.36085938 4.03515625 16.48046875 C4.02355469 17.31191406 4.01195312 18.14335938 4 19 C3.34 19 2.68 19 2 19 C-1.17441612 12.27023784 -1.11388158 7.30062141 0 0 Z " fill="#2C303C" transform="translate(58,22)"/>
<path d="M0 0 C1.32 0.66 2.64 1.32 4 2 C3.79375 2.78375 3.5875 3.5675 3.375 4.375 C3.25125 5.24125 3.1275 6.1075 3 7 C3.66 7.66 4.32 8.32 5 9 C4.01 9 3.02 9 2 9 C2 9.66 2 10.32 2 11 C0.66666667 12.33333333 -0.66666667 13.66666667 -2 15 C-2 15.66 -2 16.32 -2 17 C-4.5 18.625 -4.5 18.625 -7 20 C-6.67 18.02 -6.34 16.04 -6 14 C-5.01 13.67 -4.02 13.34 -3 13 C-2.814375 11.7934375 -2.814375 11.7934375 -2.625 10.5625 C-2.41875 9.716875 -2.2125 8.87125 -2 8 C-1.34 7.67 -0.68 7.34 0 7 C0 4.69 0 2.38 0 0 Z " fill="#3F4A61" transform="translate(32,32)"/>
<path d="M0 0 C0.33 0.99 0.66 1.98 1 3 C0.67 3.66 0.34 4.32 0 5 C-0.46588282 10.88165736 -0.46588282 10.88165736 2 16 C-1.37503669 14.8141763 -3.64722731 13.72426311 -6 11 C-5.67 10.34 -5.34 9.68 -5 9 C-4.34 9.33 -3.68 9.66 -3 10 C-2.86722656 9.36191406 -2.73445313 8.72382812 -2.59765625 8.06640625 C-2.42105469 7.24011719 -2.24445312 6.41382813 -2.0625 5.5625 C-1.88847656 4.73878906 -1.71445312 3.91507813 -1.53515625 3.06640625 C-1 1 -1 1 0 0 Z " fill="#495975" transform="translate(23,41)"/>
<path d="M0 0 C2.475 0.99 2.475 0.99 5 2 C5 2.99 5 3.98 5 5 C4.34 5.66 3.68 6.32 3 7 C0.375 6.625 0.375 6.625 -2 6 C-2 3 -2 3 0 0 Z " fill="#2C303C" transform="translate(32,43)"/>
<path d="M0 0 C1.9375 0.8125 1.9375 0.8125 4 2 C4.33 2.99 4.66 3.98 5 5 C4.01 6.485 4.01 6.485 3 8 C0.525 7.01 0.525 7.01 -2 6 C-1.49396008 3.83125748 -1.00016187 2.00032373 0 0 Z " fill="#2C313C" transform="translate(48,35)"/>
<path d="M0 0 C2.4375 0.375 2.4375 0.375 5 1 C5.33 1.66 5.66 2.32 6 3 C4.68 4.32 3.36 5.64 2 7 C0.35 6.01 -1.3 5.02 -3 4 C-2.01 2.68 -1.02 1.36 0 0 Z " fill="#2C313C" transform="translate(40,20)"/>
<path d="M0 0 C1.65 0.99 3.3 1.98 5 3 C3.25 6.875 3.25 6.875 1 8 C-1.125 7.0625 -1.125 7.0625 -3 6 C-1.125 1.125 -1.125 1.125 0 0 Z " fill="#2C303C" transform="translate(44,41)"/>
<path d="M0 0 C2.475 0.99 2.475 0.99 5 2 C4.67 2.99 4.34 3.98 4 5 C-0.75 6.125 -0.75 6.125 -3 5 C-1.125 1.125 -1.125 1.125 0 0 Z " fill="#2C313D" transform="translate(39,47)"/>
<path d="M0 0 C2.0625 0.4375 2.0625 0.4375 4 1 C3.67 2.65 3.34 4.3 3 6 C0 6 0 6 -2 5 C-1.125 1.125 -1.125 1.125 0 0 Z " fill="#2C313C" transform="translate(47,25)"/>
<path d="M0 0 C0.763125 0.20625 1.52625 0.4125 2.3125 0.625 C0.5625 4.5 0.5625 4.5 -1.6875 5.625 C-3.8125 4.6875 -3.8125 4.6875 -5.6875 3.625 C-5.6875 2.965 -5.6875 2.305 -5.6875 1.625 C-2.6875 -0.375 -2.6875 -0.375 0 0 Z " fill="#2C313C" transform="translate(36.6875,17.375)"/>
<path d="M0 0 C-1 2 -2 4 -3 6 C-4.32 5.67 -5.64 5.34 -7 5 C-7 4.01 -7 3.02 -7 2 C-4 0 -4 0 0 0 Z " fill="#2D313D" transform="translate(51,15)"/>
<path d="M0 0 C3.375 -0.125 3.375 -0.125 7 0 C7.66 0.66 8.32 1.32 9 2 C11.65537372 2.56520003 14.29144713 2.73788198 17 3 C17 3.33 17 3.66 17 4 C5.47835991 4.55353075 5.47835991 4.55353075 0 1 C0 0.67 0 0.34 0 0 Z " fill="#526588" transform="translate(25,57)"/>
<path d="M0 0 C1.32 1.65 2.64 3.3 4 5 C3.34 6.32 2.68 7.64 2 9 C0.68 8.01 -0.64 7.02 -2 6 C-1.34 4.02 -0.68 2.04 0 0 Z " fill="#2C303C" transform="translate(52,28)"/>
<path d="M0 0 C2.64 0.33 5.28 0.66 8 1 C7.67 2.32 7.34 3.64 7 5 C4.03824877 4.38722388 2.61941217 3.74627478 0 2 C0 1.34 0 0.68 0 0 Z " fill="#2C303C" transform="translate(19,19)"/>
<path d="M0 0 C2.26609984 4.53219967 1.92735976 6.17772925 1 11 C0.01 10.34 -0.98 9.68 -2 9 C-1.34 6.03 -0.68 3.06 0 0 Z " fill="#2D313D" transform="translate(55,19)"/>
<path d="M0 0 C0.90492187 0.02320313 1.80984375 0.04640625 2.7421875 0.0703125 C4.10730469 0.09738281 4.10730469 0.09738281 5.5 0.125 C6.19867188 0.14820313 6.89734375 0.17140625 7.6171875 0.1953125 C6.6271875 1.6803125 6.6271875 1.6803125 5.6171875 3.1953125 C2.3171875 2.8653125 -0.9828125 2.5353125 -4.3828125 2.1953125 C-2.3828125 0.1953125 -2.3828125 0.1953125 0 0 Z " fill="#2C313C" transform="translate(25.3828125,15.8046875)"/>
<path d="M0 0 C2.60334924 2.71182212 2.99456691 3.89133813 3.1875 7.75 C3.125625 8.8225 3.06375 9.895 3 11 C0.9375 8.875 0.9375 8.875 -1 6 C-0.75 2.6875 -0.75 2.6875 0 0 Z " fill="#2D313D" transform="translate(56,34)"/>
<path d="M0 0 C2.0625 2.125 2.0625 2.125 4 5 C3.75 8.3125 3.75 8.3125 3 11 C0.60236815 8.60236815 0.65719414 7.66726502 0.375 4.375 C0.30023437 3.55773437 0.22546875 2.74046875 0.1484375 1.8984375 C0.09945313 1.27195312 0.05046875 0.64546875 0 0 Z " fill="#2C303C" transform="translate(16,25)"/>
<path d="M0 0 C3.6875 0.3125 3.6875 0.3125 7 1 C7 1.66 7 2.32 7 3 C3.7 3 0.4 3 -3 3 C-2.01 2.01 -1.02 1.02 0 0 Z " fill="#2C303B" transform="translate(45,51)"/>
<path d="M0 0 C0.33 0 0.66 0 1 0 C1.66 2.97 2.32 5.94 3 9 C-1.875 6.25 -1.875 6.25 -3 4 C-2.02727325 2.64664105 -1.0260734 1.31337396 0 0 Z " fill="#313846" transform="translate(30,32)"/>
<path d="M0 0 C1.65 0.33 3.3 0.66 5 1 C5.33 1.99 5.66 2.98 6 4 C3.36 3.67 0.72 3.34 -2 3 C-1.34 2.01 -0.68 1.02 0 0 Z " fill="#2C303C" transform="translate(50,47)"/>
<path d="M0 0 C1.485 0.99 1.485 0.99 3 2 C2.34 4.97 1.68 7.94 1 11 C0.67 11 0.34 11 0 11 C0 7.37 0 3.74 0 0 Z " fill="#2C313C" transform="translate(19,40)"/>
<path d="M0 0 C0 1.98 0 3.96 0 6 C-0.99 6.33 -1.98 6.66 -3 7 C-3 6.34 -3 5.68 -3 5 C-3.66 5 -4.32 5 -5 5 C-5 4.34 -5 3.68 -5 3 C-1.42307692 0 -1.42307692 0 0 0 Z " fill="#2C313C" transform="translate(53,18)"/>
<path d="M0 0 C0.99 0 1.98 0 3 0 C3 0.66 3 1.32 3 2 C3.66 2 4.32 2 5 2 C5 2.66 5 3.32 5 4 C3.35 4.66 1.7 5.32 0 6 C0 4.02 0 2.04 0 0 Z " fill="#384154" transform="translate(45,21)"/>
<path d="M0 0 C1.9375 0.375 1.9375 0.375 4 1 C4.33 1.66 4.66 2.32 5 3 C2.36 3.66 -0.28 4.32 -3 5 C-2.01 3.35 -1.02 1.7 0 0 Z " fill="#343B4B" transform="translate(35,25)"/>
</svg>
